<?xml version="1.0" encoding="UTF-8"?>
<svg width="207px" height="62px" viewBox="0 0 207 62" version="1.1" xmlns="http://www.w3.org/2000/svg" xmlns:xlink="http://www.w3.org/1999/xlink">
    <!-- Generator: Sketch 52.4 (67378) - http://www.bohemiancoding.com/sketch -->
    <title>Group</title>
    <desc>Created with Sketch.</desc>
    <g id="Page-1" stroke="none" stroke-width="1" fill="none" fill-rule="evenodd">
        <g id="Artboard-2-Copy-4" transform="translate(-27.000000, -22.000000)" fill="#000000">
            <g id="Group" transform="translate(27.000000, 22.000000)">
                <g id="Group-115" transform="translate(52.000000, 0.000000)">
                    <path d="M51.5141629,48.888125 C51.5141629,49.894375 52.0366348,50.375625 52.863882,50.375625 C53.3880955,50.375625 53.9105674,50.244375 54.4765787,49.981875 L54.4765787,52.783625 C53.6475899,53.439875 52.6026461,54.008625 50.861073,54.008625 C48.6823652,54.008625 47.2891067,52.739875 46.8084326,50.638125 C45.7199494,52.871125 43.1058483,54.052375 40.2757921,54.052375 C36.266691,54.052375 33.8267472,52.039875 33.8267472,48.713125 C33.8267472,45.036375 36.7891629,43.503375 41.1465787,42.628375 L46.4165787,41.578375 L46.4165787,41.139125 C46.4165787,38.995375 45.2845562,37.682875 43.062309,37.682875 C40.8853427,37.682875 39.7080393,38.995375 39.2726461,40.876625 L34.525118,40.439125 C35.1782079,36.499875 38.1841629,33.741875 43.2800056,33.741875 C48.2469719,33.741875 51.5141629,36.106125 51.5141629,41.184625 L51.5141629,48.888125 Z M46.4165787,44.730125 L42.801073,45.517625 C40.5352865,45.998875 38.9243315,46.392625 38.9243315,48.319375 C38.9243315,49.631875 39.925736,50.419375 41.5819719,50.419375 C44.326691,50.419375 46.4165787,48.319375 46.4165787,45.211375 L46.4165787,44.730125 Z" id="Fill-89"></path>
                    <path d="M80.6811573,33.742575 C85.8658202,33.742575 87.5203146,37.331825 87.5203146,41.533575 L87.5203146,53.571825 L82.2938539,53.571825 L82.2938539,42.585325 C82.2938539,39.608575 81.3777865,37.900575 78.8072247,37.900575 C76.2819438,37.900575 74.7563258,40.002325 74.7563258,43.241575 L74.7563258,53.571825 L69.5281236,53.571825 L69.5281236,42.585325 C69.5281236,39.608575 68.5702584,37.900575 66.043236,37.900575 C63.5179551,37.900575 61.9923371,40.002325 61.9923371,43.241575 L61.9923371,53.571825 L56.7658764,53.571825 L56.7658764,34.267575 L61.9923371,34.267575 L61.9923371,37.419325 C62.9502022,35.230075 65.1289101,33.742575 68.0477865,33.742575 C71.4455955,33.742575 73.3630674,35.361325 74.1903146,37.725575 C75.2352584,35.450575 77.5445843,33.742575 80.6811573,33.742575" id="Fill-91"></path>
                    <path d="M96.7349775,61.700225 L91.5085169,61.700225 L91.5085169,34.267225 L96.7349775,34.267225 L96.7349775,37.989475 C97.605764,35.625225 99.9150899,33.742225 103.356438,33.742225 C109.020034,33.742225 112.025989,38.251975 112.025989,43.941225 C112.025989,49.632225 109.020034,54.096475 103.356438,54.096475 C99.9150899,54.096475 97.605764,52.215225 96.7349775,49.894725 L96.7349775,61.700225 Z M96.6914382,44.291225 C96.6914382,47.836725 98.7830674,49.982225 101.745483,49.982225 C105.056213,49.982225 106.754247,47.574225 106.754247,43.941225 C106.754247,40.264475 105.056213,37.856475 101.745483,37.856475 C98.7830674,37.856475 96.6914382,40.045725 96.6914382,43.547475 L96.6914382,44.291225 Z" id="Fill-93"></path>
                    <path d="M128.332337,34.26775 L133.558798,34.26775 L133.558798,53.572 L128.332337,53.572 L128.332337,50.42025 C127.330933,52.65325 125.065146,54.097 122.14627,54.097 C117.048685,54.097 115.307112,50.639 115.307112,46.34975 L115.307112,34.26775 L120.533573,34.26775 L120.533573,45.298 C120.533573,48.231 121.623798,49.98275 124.192618,49.98275 C126.76318,49.98275 128.332337,47.881 128.332337,44.598 L128.332337,34.26775 Z" id="Fill-95"></path>
                    <path d="M141.328129,47.00565 C141.632904,49.32615 143.376219,50.5074 146.032118,50.5074 C147.94959,50.5074 149.517006,49.85115 149.517006,48.4494 C149.517006,47.1369 148.646219,46.56815 146.730489,46.2619 L143.680994,45.7369 C139.584815,45.0789 137.32077,43.54765 137.32077,39.9584 C137.32077,36.28165 140.413803,33.7424 145.291949,33.7424 C150.60723,33.7424 153.787343,36.1504 154.135657,40.43965 L149.823522,40.61465 C149.475208,38.4254 147.993129,37.33165 145.24841,37.33165 C143.376219,37.33165 142.155376,38.1629 142.155376,39.47715 C142.155376,40.52715 142.853747,41.13965 144.247006,41.3584 L147.906051,41.9709 C151.956949,42.6289 154.353354,44.33515 154.353354,47.96815 C154.353354,51.90915 150.955545,54.09665 145.988579,54.09665 C140.979815,54.09665 137.146612,51.90915 136.798298,47.18065 L141.328129,47.00565 Z" id="Fill-97"></path>
                    <path d="M26.8210955,45.5948 C26.3613202,48.3528 24.7677809,50.06955 21.9899719,50.06955 C19.1146348,50.06955 17.1118258,47.9258 17.1118258,43.94105 C17.1118258,39.9143 19.1146348,37.7688 21.9899719,37.7688 C24.8496348,37.7688 26.4571067,39.54505 26.8611517,42.40455 L31.2638483,42.10005 C30.8110393,37.4818 27.6779494,33.74205 21.9899719,33.74205 C16.0651404,33.74205 11.8400843,37.81255 11.8400843,43.94105 C11.8400843,50.06955 16.0651404,54.0963 21.9899719,54.0963 C27.5525562,54.0963 30.6647472,50.5193 31.2237921,46.04105 L26.8210955,45.5948 Z" id="Fill-99"></path>
                    <path d="M19.8783146,28.053325 C19.0214607,28.366575 17.7326966,28.720075 16.4073596,28.720075 C14.0283708,28.720075 12.8580337,27.426825 12.7413483,24.565575 C11.8827528,27.034825 9.19202247,28.837325 5.99449438,28.837325 C2.87359551,28.837325 0.377921348,27.192325 0.377921348,23.977575 C0.377921348,19.784575 4.8241573,18.529825 9.54207865,17.668825 L12.6629775,17.119325 L12.6629775,15.630075 C12.6629775,11.984825 11.4160112,10.535825 8.37348315,10.535825 C6.07286517,10.535825 4.66741573,11.671575 4.66741573,13.552825 C4.66741573,14.415575 4.9408427,14.963325 5.36926966,15.474325 C4.9791573,15.826075 4.16061798,16.060575 3.45876404,16.060575 C2.17174157,16.060575 1.27483146,15.276575 1.27483146,13.789075 C1.27483146,11.279575 4.12230337,9.006325 8.84196629,9.006325 C13.7549438,9.006325 16.1739888,11.241075 16.1739888,15.512825 C16.1739888,19.000575 16.0573034,21.900325 16.0573034,24.290825 C16.0573034,26.525575 17.2258989,27.348075 19.8783146,27.544075 L19.8783146,28.053325 Z M9.81550562,19.039075 C6.03280899,19.784575 3.9655618,20.843325 3.9655618,23.585575 C3.9655618,25.741575 5.29264045,26.798575 7.39820225,26.798575 C9.8555618,26.798575 12.6629775,24.682825 12.6629775,20.489825 L12.6629775,18.451075 L9.81550562,19.039075 Z" id="Fill-101"></path>
                    <path d="M40.3149775,24.173575 C40.3149775,26.760075 40.8618315,27.113575 42.5389663,28.170575 L42.5389663,28.445325 L34.6984045,28.445325 L34.6984045,28.170575 C36.3755393,27.113575 36.9223933,26.760075 36.9223933,24.173575 L36.9223933,16.414075 C36.9223933,13.827575 35.9070562,11.437075 32.8262135,11.437075 C29.9021124,11.437075 27.366382,13.906325 27.366382,18.412575 L27.366382,24.173575 C27.366382,26.760075 27.913236,27.113575 29.5903708,28.170575 L29.5903708,28.445325 L21.749809,28.445325 L21.749809,28.170575 C23.4269438,27.113575 23.9737978,26.760075 23.9737978,24.173575 L23.9737978,13.435575 C23.9737978,11.319825 22.8417753,10.574325 21.3596966,9.634575 L21.3596966,9.400075 L27.211382,9.400075 L27.366382,14.140825 C28.4984045,10.849075 30.955764,9.006325 34.2299213,9.006325 C38.2094157,9.006325 40.3149775,11.633075 40.3149775,15.826075 L40.3149775,24.173575 Z" id="Fill-103"></path>
                    <path d="M49.3305787,13.514325 C49.3305787,15.395575 50.6576573,16.296825 54.011927,16.963575 C59.0816461,17.943575 60.9921517,19.627075 60.9921517,22.841825 C60.9921517,26.487075 57.911309,28.837325 53.7768146,28.837325 C51.3194551,28.837325 49.3305787,27.936075 48.0435562,27.152075 L46.6781629,28.837325 L46.3664213,28.837325 L45.9379944,21.587075 L46.4831067,21.587075 C48.4737247,25.270825 50.8126573,27.192325 53.7768146,27.192325 C56.1558034,27.192325 57.9896798,26.093325 57.9896798,23.781575 C57.9896798,21.587075 56.2341742,20.881825 52.9582753,20.255325 C48.121927,19.275325 46.4447921,17.628575 46.4447921,14.532825 C46.4447921,11.279575 49.2138933,9.006325 52.9182191,9.006325 C55.2205787,9.006325 56.8576573,9.751825 58.1829944,10.574325 L59.6668146,9.006325 L59.9385,9.006325 L59.9385,15.474325 L59.510073,15.474325 C57.7946236,12.730325 55.765691,10.614575 52.9582753,10.614575 C50.6576573,10.614575 49.3305787,11.790575 49.3305787,13.514325" id="Fill-105"></path>
                    <path d="M68.5270674,18.648125 C68.5270674,23.665375 70.984427,26.682375 74.8454944,26.682375 C77.5762809,26.682375 79.7985281,25.271875 80.928809,22.253125 L81.6707191,22.566375 C80.8121236,26.486375 78.0830787,28.836625 73.8301573,28.836625 C68.8004944,28.836625 64.821,25.350625 64.821,19.197625 C64.821,13.004375 69.0739213,9.007375 74.4170674,9.007375 C78.354764,9.007375 81.2806067,11.005875 81.2806067,13.788375 C81.2806067,15.629375 79.9152135,16.217375 78.7448764,16.217375 C78.3948202,16.217375 77.9263371,16.140375 77.7312809,15.944375 C77.9263371,15.435125 78.1213933,15.120125 78.1213933,14.259125 C78.1213933,12.220375 76.9893708,10.575375 74.455382,10.575375 C70.711,10.575375 68.5270674,14.180375 68.5270674,18.648125" id="Fill-107"></path>
                    <path d="M103.432197,24.173575 C103.432197,26.760075 103.979051,27.113575 105.656185,28.170575 L105.656185,28.445325 L97.8156236,28.445325 L97.8156236,28.170575 C99.4945,27.113575 100.039612,26.760075 100.039612,24.173575 L100.039612,16.414075 C100.039612,13.827575 99.0260169,11.437075 95.9434326,11.437075 C93.0193315,11.437075 90.4836011,13.906325 90.4836011,18.412575 L90.4836011,24.173575 C90.4836011,26.760075 91.0304551,27.113575 92.7075899,28.170575 L92.7075899,28.445325 L84.8687697,28.445325 L84.8687697,28.170575 C86.5459045,27.113575 87.0910169,26.760075 87.0910169,24.173575 L87.0910169,4.745075 C87.0910169,2.589075 85.9206798,1.883825 84.4386011,0.944075 L84.4386011,0.669325 L90.4836011,0.669325 L90.4836011,14.140825 C91.6156236,10.849075 94.0729831,9.006325 97.348882,9.006325 C101.326635,9.006325 103.432197,11.633075 103.432197,15.826075 L103.432197,24.173575 Z" id="Fill-109"></path>
                    <path d="M128.322236,28.053325 C127.465382,28.366575 126.176618,28.720075 124.851281,28.720075 C122.472292,28.720075 121.301955,27.426825 121.18527,24.565575 C120.326674,27.034825 117.635944,28.837325 114.438416,28.837325 C111.317517,28.837325 108.821843,27.192325 108.821843,23.977575 C108.821843,19.784575 113.268079,18.529825 117.987742,17.668825 L121.106899,17.119325 L121.106899,15.630075 C121.106899,11.984825 119.859933,10.535825 116.817404,10.535825 C114.516787,10.535825 113.111337,11.671575 113.111337,13.552825 C113.111337,14.415575 113.384764,14.963325 113.813191,15.474325 C113.423079,15.826075 112.604539,16.060575 111.902685,16.060575 C110.615663,16.060575 109.718753,15.276575 109.718753,13.789075 C109.718753,11.279575 112.566225,9.006325 117.284146,9.006325 C122.198865,9.006325 124.61791,11.241075 124.61791,15.512825 C124.61791,19.000575 124.501225,21.900325 124.501225,24.290825 C124.501225,26.525575 125.66982,27.348075 128.322236,27.544075 L128.322236,28.053325 Z M118.261169,19.039075 C114.47673,19.784575 112.409483,20.843325 112.409483,23.585575 C112.409483,25.741575 113.736562,26.798575 115.842124,26.798575 C118.299483,26.798575 121.106899,24.682825 121.106899,20.489825 L121.106899,18.451075 L118.261169,19.039075 Z" id="Fill-111"></path>
                    <path d="M135.358888,24.448325 C135.358888,26.721575 136.255798,27.192325 139.141584,28.093575 L139.141584,28.445325 L129.742315,28.445325 L129.742315,28.170575 C131.419449,27.113575 131.966303,26.760075 131.966303,24.173575 L131.966303,13.435575 C131.966303,11.319825 130.834281,10.574325 129.352202,9.634575 L129.352202,9.400075 L135.203888,9.400075 L135.358888,14.846075 C136.372483,11.790575 138.244674,9.006325 141.560629,9.006325 C143.58782,9.006325 144.909674,10.460575 144.909674,12.499325 C144.909674,14.811075 144.040629,15.467325 141.818382,15.274825 C142.598607,13.692825 142.105742,11.890325 140.392034,11.876325 C137.537596,11.857075 135.358888,15.355325 135.358888,19.550075 L135.358888,24.448325 Z" id="Fill-113"></path>
                </g>
                <polygon id="Fill-116" points="39.375 43 39.375 32 33.75 32 33.75 21 28.125 21 28.125 10 16.875 10 16.875 21 11.25 21 11.25 32 5.625 32 5.625 43 0 43 0 54 45 54 45 43"></polygon>
            </g>
        </g>
    </g>
</svg>